<?xml version="1.0" encoding="iso-8859-1"?>
<!-- Generator: Adobe Illustrator 19.0.0, SVG Export Plug-In . SVG Version: 6.00 Build 0)  -->
<svg width="44" height="44" id="Capa_1" xmlns="http://www.w3.org/2000/svg" xmlns:xlink="http://www.w3.org/1999/xlink" x="0px" y="0px"
	 viewBox="0 0 512 512" style="enable-background:new 0 0 512 512;" xml:space="preserve">
<g>
	<g>
		<g>
			<path d="M256.067,293.558c2.565,1.464,5.351,2.157,8.112,2.157c5.689,0,11.218-2.964,14.253-8.253
				c4.482-7.854,1.757-17.865-6.097-22.355c-62.478-35.685-95.776-75.426-104.828-125.054c-4.02-22.063,0.639-54.766,20.101-78.098
				c16.152-19.373,39.501-29.189,69.391-29.189c46.654,0,79.935,25.852,89.022,69.134c8.955,42.59-9.833,97.95-63.046,121.335
				c-8.271,3.648-12.043,13.312-8.404,21.592c3.656,8.28,13.303,12.052,21.601,8.404c69.187-30.414,93.584-102.538,81.922-158.068
				C368.429,49.157,331.537,0,256.998,0c-49.903,0-78.967,22.276-94.551,40.966c-28.053,33.617-32.18,77.556-27.183,104.961
				C149.605,224.575,211.081,267.857,256.067,293.558z"/>
			<path d="M472.015,479.235H56.43c0.577-69.178,4.837-114.59,12.7-135.135c10.366-27.068,54.926-51.615,82.482-63.836
				c16.578,35.073,60.25,125.071,91.001,166.605c6.177,8.333,20.163,8.333,26.331,0c30.751-41.525,74.423-131.532,90.992-166.605
				c27.574,12.221,72.134,36.759,82.499,63.854c10.224,26.642,9.682,58.236,9.203,86.102c-0.098,5.919-0.195,11.679-0.195,17.19
				c0,9.052,7.331,16.392,16.383,16.392c9.052,0,16.383-7.339,16.383-16.392c0-5.343,0.098-10.889,0.195-16.622
				c0.541-30.857,1.136-65.815-11.369-98.403c-19.906-52.015-105.92-84.984-115.664-88.57c-8.005-2.938-16.968,0.754-20.545,8.529
				c-0.515,1.118-45.793,99.352-81.035,155.494c-35.242-56.141-80.529-154.376-81.044-155.494
				c-3.577-7.765-12.531-11.466-20.545-8.529c-9.736,3.585-95.74,36.555-115.646,88.57c-13.41,34.94-14.954,109.896-14.954,163.233
				c0,9.043,7.331,16.383,16.383,16.383h432.03c9.052,0,16.383-7.331,16.383-16.383
				C488.398,486.565,481.067,479.235,472.015,479.235z"/>
			<path d="M379.78,449.069c9.043,0,16.374-7.348,16.383-16.392v-17.98h17.989c9.043,0,16.383-7.339,16.383-16.392
				c0-9.052-7.331-16.383-16.383-16.383h-17.989v-18.007c0-9.052-7.331-16.383-16.383-16.383c-9.052,0-16.383,7.331-16.383,16.383
				v18.007h-18.007c-9.052,0-16.383,7.331-16.383,16.383c0,9.052,7.331,16.392,16.383,16.392h18.007v17.98
				C363.397,441.73,370.728,449.069,379.78,449.069z"/>
		</g>
	</g>
</g>
</svg>
