<svg id="Capa_1" enable-background="new 0 0 512 512" height="44" viewBox="0 0 512 512" width="44" xmlns="http://www.w3.org/2000/svg"><path d="m511.226 492.253-33.816-101.45c-10.529-31.585-37.259-55.692-69.761-62.916l-88.449-19.655v-37.967c38.365-21.996 64.267-63.362 64.267-110.665v-62.023c0-15.031-4.967-29.932-13.986-41.958l-.066-.088c-11.415-15.196-47.04-55.531-113.406-55.531-66.367 0-101.989 40.308-113.424 55.531l-.066.088c-9.019 12.026-13.986 26.927-13.986 41.958v62.023c0 47.303 25.902 88.669 64.267 110.665v37.967l-88.449 19.655c-32.501 7.224-59.232 31.331-69.761 62.916l-33.816 101.45c-2.62 7.859 1.628 16.354 9.487 18.974 7.861 2.618 16.354-1.629 18.974-9.487l33.816-101.45c7.215-21.646 25.535-38.167 47.809-43.117l17.674-3.927v66.95c-18.655 6.281-32.133 23.926-32.133 44.671 0 25.989 21.144 47.134 47.133 47.134s47.133-21.145 47.133-47.134c0-20.745-13.478-38.39-32.133-44.671v-73.617l41.928-9.317 42.676 71.057c2.711 4.518 7.593 7.282 12.862 7.282s10.151-2.765 12.862-7.282l42.639-71.065 41.965 9.326v40.812c-14.918 3.615-48.2 20.52-48.2 61.41v48.198c0 8.284 6.716 15 15 15h16.067c8.284 0 15-6.716 15-15s-6.716-15-15-15h-1.067v-33.2c0-18.341 14.842-33.2 33.2-33.2 18.307 0 33.2 14.894 33.2 33.2v33.2h-1.066c-8.284 0-15 6.716-15 15s6.716 15 15 15h16.066c8.284 0 15-6.716 15-15v-48.2c0-29.68-20.57-54.634-48.2-61.387v-34.168l17.674 3.927c22.274 4.95 40.593 21.472 47.809 43.117l33.816 101.45c2.62 7.858 11.113 12.105 18.974 9.487 7.859-2.619 12.107-11.113 9.487-18.973zm-350.56-27.387c0 9.447-7.686 17.134-17.133 17.134s-17.133-7.687-17.133-17.134 7.686-17.133 17.133-17.133 17.133 7.686 17.133 17.133zm-2.133-367.289c0-8.556 2.818-17.037 7.938-23.894.018-.023.035-.046.052-.069 9.094-12.125 36.837-43.614 89.625-43.614 52.559 0 80.385 31.688 89.329 43.614.017.023.035.046.052.069 5.119 6.856 7.938 15.338 7.938 23.894v25.81l-20.65-20.649c-3.116-3.116-6.339-6.338-12.552-6.338-2.329 0-4.625.542-6.708 1.584-36.04 18.02-79.073 18.02-115.115 0-5.775-2.89-12.75-1.757-17.314 2.81l-22.594 22.571v-25.788zm0 62.023v-3.187c8.616-2.488 16.515-7.115 23.034-13.632 4.457-4.458 9.446-9.446 13.414-13.414 38.896 16.153 83.14 16.155 122.038 0l13.415 13.415c6.518 6.517 14.417 11.143 23.033 13.631v3.187c0 53.743-43.724 97.467-97.467 97.467s-97.467-43.724-97.467-97.467zm130.667 156.512-33.2 55.333-33.2-55.334v-33.44c10.59 2.86 21.719 4.395 33.2 4.395s22.61-1.535 33.2-4.395z"/></svg>