<svg id="Layer_1" height="24" viewBox="0 0 512 512" width="24" xmlns="http://www.w3.org/2000/svg" data-name="Layer 1"><path d="m508.5 65.681a65.681 65.681 0 0 0 -112.162-46.481l-308.02 308.015a16.008 16.008 0 0 0 -4.189 7.356l-25.579 100.186a16 16 0 0 0 20.256 19.236l95.923-29.843a16.013 16.013 0 0 0 6.56-3.964l308.02-308.019a65.281 65.281 0 0 0 19.191-46.486zm-347.047 329.086-64.814 20.165 17.41-68.193 269.551-269.552 47.718 47.713zm305.229-305.227-12.737 12.736-47.716-47.717 12.736-12.736a33.741 33.741 0 0 1 47.717 47.717zm-117.305 422.46h-329.877a16 16 0 1 1 0-32h329.877a16 16 0 0 1 0 32z"/></svg>