<svg width="44" height="44" id="Capa_1" enable-background="new 0 0 512 512" viewBox="0 0 512 512" xmlns="http://www.w3.org/2000/svg"><g><path d="m472.194 279.686c-17.563-17.563-38.773-29.308-61.214-35.247 8.559-21.007 11.836-44.108 9.279-66.849-3.428-30.48-17.283-59.234-39.013-80.965-50.516-50.515-131.183-52.948-184.605-7.302-4.662-50.029-46.877-89.323-98.104-89.323-54.334 0-98.537 44.204-98.537 98.538v314.925c0 54.333 44.203 98.537 98.537 98.537s98.537-44.204 98.537-98.538v-116.641c15.471 13.147 33.384 22.498 52.856 27.631-20.033 49.217-10.117 107.871 29.754 147.743 26.538 26.536 61.396 39.805 96.255 39.805 34.858 0 69.717-13.269 96.254-39.806 53.076-53.075 53.076-139.433.001-192.508zm-123.533-171.696-148.567 148.568c-13.763-18.27-21.214-40.401-21.214-63.678 0-28.344 11.038-54.991 31.08-75.033 37.771-37.771 97.163-41.052 138.701-9.857zm-250.124-77.978c37.786 0 68.526 30.741 68.526 68.526v26.255c-11.865 20.473-18.196 43.792-18.196 68.087 0 16.666 2.983 32.872 8.682 48.017h-127.538v-142.359c0-37.786 30.741-68.526 68.526-68.526zm0 451.977c-37.786 0-68.526-30.741-68.526-68.526v-142.555h137.052v142.554c.001 37.786-30.74 68.527-68.526 68.527zm122.782-204.215 148.569-148.569c11.355 15.047 18.404 32.676 20.547 51.739 2.279 20.266-1.379 40.885-10.326 59.008-36.235-1.1-72.828 12.139-100.424 39.734-5.469 5.469-10.366 11.297-14.708 17.4-15.967-3.027-30.766-9.585-43.658-19.312zm79.587 23.134c20.687-20.687 47.86-31.03 75.033-31.03 21.98 0 43.958 6.77 62.505 20.305l-148.263 148.262c-30.267-41.476-26.694-100.118 10.725-137.537zm150.067 150.065c-38.124 38.122-98.276 41.116-139.861 8.983l148.844-148.844c32.134 41.585 29.14 101.738-8.983 139.861z"/></g></svg>