<svg fill="none" height="24" viewBox="0 0 128 128" width="24" xmlns="http://www.w3.org/2000/svg"><g fill="rgb(0,0,0)"><path clip-rule="evenodd" d="m93.5152 90.9977c1.3409.0126 2.6799-.0277 4.0001-.1194 3.5757-.2483 6.2787 3.6094 3.8997 6.2905-1.154 1.3008-2.3752 2.5419-3.6569 3.7152-8.8951 8.146-20.7462 13.116-33.7581 13.116-27.6142 0-50-22.3858-50-50 0-19.5961 10.5838-36.3008 27-44.5 3.2064-1.6015 6.9097 1.7539 5.7375 5.1409-11.2375 29.3724 13.0574 66.0365 46.7777 66.3568zm-59.4099-53.5771c-1.7312 29.3478 18.9257 56.4505 47.8009 62.3601-5.3877 2.7023-11.4679 4.2193-17.9062 4.2193-22.0914 0-40-17.9086-40-40 0-10.1956 3.8138-19.5081 10.1053-26.5794z" fill-rule="evenodd"/><path d="m63.7944 59.7164c-2.3022-1.0792-2.3022-4.3535 0-5.4327l6.1997-2.9063c.6058-.284 1.0993-.7624 1.402-1.3592l3.7196-7.3323c1.1484-2.2639 4.4144-2.1671 5.4266.1609l3.0475 7.0086c.3028.6964.8585 1.2521 1.5549 1.5549l6.5281 2.8386c2.405 1.0457 2.405 4.4566 0 5.5023l-6.5281 2.8386c-.6964.3028-1.2521.8584-1.5549 1.5549l-3.0475 7.0086c-1.0122 2.328-4.2782 2.4248-5.4266.1609l-3.7196-7.3324c-.3027-.5967-.7962-1.0751-1.402-1.3591z"/><path clip-rule="evenodd" d="m71.3961 50.0182c-.3027.5968-.7962 1.0752-1.402 1.3592l-6.1997 2.9063c-2.3022 1.0792-2.3022 4.3535 0 5.4327l6.1997 2.9063c.6058.284 1.0993.7624 1.402 1.3591l3.7196 7.3324c1.1484 2.2639 4.4144 2.1671 5.4266-.1609l3.0475-7.0086c.3028-.6965.8585-1.2521 1.5549-1.5549l6.5281-2.8386c2.405-1.0457 2.405-4.4566 0-5.5023l-6.5281-2.8386c-.6964-.3028-1.2521-.8585-1.5549-1.5549l-3.0475-7.0086c-1.0122-2.328-4.2782-2.4248-5.4266-.1609z" fill-rule="evenodd"/></g></svg>