<svg height="44" viewBox="-1 0 512 512" width="44" xmlns="http://www.w3.org/2000/svg"><path d="m490.652344 386.570312c-14.210938-15.707031-34.503906-24.714843-55.675782-24.714843-7.976562 0-19.886718 2.980469-22.191406 3.574219l-.699218.183593-.53125.191407v-103.085938c0-50.386719-38.105469-92.03125-87.007813-97.65625 17.113281-17.53125 27.675781-41.480469 27.675781-67.859375 0-53.597656-43.605468-97.203125-97.203125-97.203125-53.597656 0-97.207031 43.605469-97.207031 97.203125 0 26.378906 10.566406 50.328125 27.679688 67.859375-48.902344 5.625-87.007813 47.269531-87.007813 97.65625v103.085938l-.53125-.191407-.699219-.183593c-2.308594-.59375-14.214844-3.574219-22.191406-3.574219-21.171875 0-41.464844 9.007812-55.679688 24.714843-14.199218 15.695313-21.128906 36.851563-19.007812 58.046876 1.886719 18.839843 11.230469 36.132812 26.308594 48.695312 14.46875 12.050781 32.867187 18.6875 51.804687 18.6875h353.0625c18.9375 0 37.335938-6.636719 51.804688-18.6875 15.078125-12.5625 24.421875-29.855469 26.308593-48.695312 2.121094-21.195313-4.808593-42.351563-19.011718-58.046876zm-235.632813-356.570312c37.054688 0 67.203125 30.148438 67.203125 67.203125 0 37.058594-30.148437 67.207031-67.203125 67.207031-37.058593 0-67.207031-30.148437-67.207031-67.207031 0-37.054687 30.148438-67.203125 67.207031-67.203125zm-126.535156 232.71875c0-37.664062 30.644531-68.308594 68.308594-68.308594h116.449219c37.667968 0 68.3125 30.644532 68.3125 68.308594v114.023438l-45.21875 16.484374v-122.316406h-30v133.25l-51.316407 18.707032-51.316406-18.707032v-133.25h-30v122.316406l-45.21875-16.484374zm-98.257813 178.910156c-1.296874-12.964844 2.75-25.371094 11.402344-34.929687 8.535156-9.433594 20.722656-14.84375 33.433594-14.84375 2.667969 0 9.171875 1.238281 14 2.449219l150.957031 55.027343v32.667969h-161.53125c-24.796875 0-45.996093-17.734375-48.261719-40.371094zm449.585938 0c-2.265625 22.636719-23.464844 40.371094-48.261719 40.371094h-161.53125v-32.667969l150.957031-55.027343c4.3125-1.078126 11.175782-2.449219 14-2.449219 12.710938 0 24.894532 5.410156 33.433594 14.84375 8.652344 9.5625 12.699219 21.964843 11.402344 34.929687zm0 0"/></svg>