<svg id="Line" enable-background="new 0 0 32 32" height="24" viewBox="0 0 32 32" width="24" xmlns="http://www.w3.org/2000/svg"><path id="XMLID_210_" d="m30 22c0 .552-.447 1-1 1h-2c-.553 0-1-.448-1-1s.447-1 1-1h2c.553 0 1 .448 1 1z"/><path id="XMLID_212_" d="m6 22c0 .552-.447 1-1 1h-2c-.553 0-1-.448-1-1s.447-1 1-1h2c.553 0 1 .448 1 1z"/><path id="XMLID_214_" d="m6.101 13.515c-.391-.391-.391-1.023 0-1.414s1.023-.391 1.414 0l1.192 1.192c.391.391.391 1.023 0 1.414s-1.023.391-1.414 0z"/><path id="XMLID_216_" d="m23.293 14.707c-.391-.391-.391-1.023 0-1.414l1.192-1.192c.391-.391 1.023-.391 1.414 0s.391 1.023 0 1.414l-1.192 1.192c-.391.391-1.023.391-1.414 0z"/><path id="XMLID_218_" d="m21.938 22.859c.523-3.617-2.292-6.859-5.938-6.859-3.649 0-6.461 3.246-5.938 6.859.078.546-.302 1.053-.849 1.131-.549.075-1.053-.302-1.132-.848-.692-4.856 3.086-9.142 7.919-9.142 4.837 0 8.61 4.291 7.919 9.143-.079.545-.584.926-1.132.848-.547-.079-.927-.586-.849-1.132z"/><path id="XMLID_220_" d="m26 27c0 .552-.447 1-1 1h-18c-.553 0-1-.448-1-1s.447-1 1-1h18c.553 0 1 .448 1 1z"/><path id="XMLID_222_" d="m15 11v-3.586l-1.293 1.293c-.391.391-1.023.391-1.414 0s-.391-1.023 0-1.414l2.999-2.999c.386-.387 1.025-.392 1.416 0l2.999 2.999c.391.391.391 1.023 0 1.414s-1.023.391-1.414 0l-1.293-1.293v3.586c0 .552-.447 1-1 1s-1-.448-1-1z"/></svg>