<svg id="Line" enable-background="new 0 0 32 32" height="24" viewBox="0 0 32 32" width="24" xmlns="http://www.w3.org/2000/svg"><path id="XMLID_183_" d="m30 22c0 .552-.448 1-1 1h-2c-.552 0-1-.448-1-1s.448-1 1-1h2c.552 0 1 .448 1 1z"/><path id="XMLID_185_" d="m6 22c0 .552-.448 1-1 1h-2c-.552 0-1-.448-1-1s.448-1 1-1h2c.552 0 1 .448 1 1z"/><path id="XMLID_191_" d="m6.101 13.515c-.391-.391-.391-1.023 0-1.414s1.023-.391 1.414 0l1.192 1.192c.391.391.391 1.023 0 1.414s-1.023.391-1.414 0z"/><path id="XMLID_202_" d="m23.293 14.707c-.391-.391-.391-1.023 0-1.414l1.192-1.192c.391-.391 1.023-.391 1.414 0s.391 1.023 0 1.414l-1.192 1.192c-.391.391-1.023.391-1.414 0z"/><path id="XMLID_204_" d="m21.939 22.86c.52-3.656-2.323-6.86-5.939-6.86-3.614 0-6.46 3.203-5.939 6.86.078.547-.303 1.053-.85 1.131-.545.08-1.053-.303-1.131-.85-.688-4.888 3.113-9.141 7.92-9.141 4.808 0 8.608 4.254 7.919 9.142-.078.548-.586.928-1.131.85-.546-.079-.927-.585-.849-1.132z"/><path id="XMLID_206_" d="m26 27c0 .552-.448 1-1 1h-18c-.552 0-1-.448-1-1s.448-1 1-1h18c.552 0 1 .448 1 1z"/><path id="XMLID_208_" d="m16 4c.552 0 1 .448 1 1v3.586l1.293-1.293c.391-.391 1.023-.391 1.414 0s.391 1.023 0 1.414l-3 3c-.185.185-.446.293-.707.293s-.522-.108-.707-.293l-3-3c-.391-.391-.391-1.023 0-1.414s1.023-.391 1.414 0l1.293 1.293v-3.586c0-.552.448-1 1-1z"/></svg>