<svg xmlns="http://www.w3.org/2000/svg" xmlns:xlink="http://www.w3.org/1999/xlink" width="187.5" viewBox="0 0 187.5 187.5" height="187.5" version="1.0"><defs><clipPath id="a"><path d="M 43.273438 45 L 93 45 L 93 77 L 43.273438 77 Z M 43.273438 45"/></clipPath><clipPath id="b"><path d="M 65.242188 55.65625 L 48.828125 51.789062 L 43.335938 74.945312 L 46.179688 75.617188 C 64.628906 79.964844 87.152344 69.53125 91.511719 51.148438 L 92.890625 45.332031 C 85.539062 56.015625 75.449219 58.058594 65.242188 55.65625 Z M 65.242188 55.65625"/></clipPath><clipPath id="d"><path d="M 46 24.226562 L 117 24.226562 L 117 82 L 46 82 Z M 46 24.226562"/></clipPath><clipPath id="e"><path d="M 116.863281 29.691406 L 110.703125 55.664062 C 109.816406 59.40625 108.34375 62.851562 106.40625 65.941406 C 100.699219 75.035156 90.957031 80.96875 80.222656 81.878906 C 76.6875 82.179688 73.046875 81.933594 69.40625 81.078125 L 46.183594 75.613281 C 64.628906 79.953125 83.121094 68.578125 87.484375 50.199219 L 93.644531 24.226562 Z M 116.863281 29.691406"/></clipPath><clipPath id="g"><path d="M 94 73 L 144.488281 73 L 144.488281 105 L 94 105 Z M 94 73"/></clipPath><clipPath id="h"><path d="M 122.515625 94.007812 L 138.929688 97.875 L 144.421875 74.722656 L 141.578125 74.050781 C 123.132812 69.703125 100.605469 80.136719 96.25 98.515625 L 94.867188 104.335938 C 102.21875 93.652344 112.3125 91.609375 122.515625 94.007812 Z M 122.515625 94.007812"/></clipPath><clipPath id="j"><path d="M 70 67 L 142 67 L 142 125.4375 L 70 125.4375 Z M 70 67"/></clipPath><clipPath id="k"><path d="M 94.121094 125.4375 L 100.28125 99.46875 C 104.640625 81.089844 123.132812 69.707031 141.578125 74.050781 L 118.355469 68.582031 C 99.90625 64.238281 81.414062 75.617188 77.058594 94 L 70.898438 119.96875 Z M 94.121094 125.4375"/></clipPath><clipPath id="m"><path d="M 61 29 L 80 29 L 80 47 L 61 47 Z M 61 29"/></clipPath><clipPath id="n"><path d="M 79.804688 37.875 C 79.804688 38.457031 79.746094 39.035156 79.632812 39.605469 C 79.519531 40.179688 79.351562 40.734375 79.125 41.269531 C 78.902344 41.808594 78.628906 42.320312 78.304688 42.804688 C 77.976562 43.289062 77.609375 43.738281 77.195312 44.152344 C 76.78125 44.5625 76.332031 44.929688 75.84375 45.253906 C 75.359375 45.578125 74.847656 45.851562 74.304688 46.074219 C 73.765625 46.296875 73.207031 46.464844 72.632812 46.578125 C 72.0625 46.691406 71.480469 46.75 70.898438 46.75 C 70.3125 46.75 69.734375 46.691406 69.160156 46.578125 C 68.585938 46.464844 68.027344 46.296875 67.488281 46.074219 C 66.949219 45.851562 66.433594 45.578125 65.949219 45.253906 C 65.460938 44.929688 65.011719 44.5625 64.597656 44.152344 C 64.183594 43.738281 63.816406 43.289062 63.488281 42.804688 C 63.164062 42.320312 62.890625 41.808594 62.667969 41.269531 C 62.441406 40.734375 62.273438 40.179688 62.160156 39.605469 C 62.046875 39.035156 61.988281 38.457031 61.988281 37.875 C 61.988281 37.292969 62.046875 36.714844 62.160156 36.144531 C 62.273438 35.570312 62.441406 35.015625 62.667969 34.480469 C 62.890625 33.941406 63.164062 33.429688 63.488281 32.945312 C 63.816406 32.460938 64.183594 32.011719 64.597656 31.597656 C 65.011719 31.1875 65.460938 30.820312 65.949219 30.496094 C 66.433594 30.171875 66.949219 29.898438 67.488281 29.675781 C 68.027344 29.453125 68.585938 29.285156 69.160156 29.171875 C 69.734375 29.054688 70.3125 29 70.898438 29 C 71.480469 29 72.0625 29.054688 72.632812 29.171875 C 73.207031 29.285156 73.765625 29.453125 74.304688 29.675781 C 74.847656 29.898438 75.359375 30.171875 75.84375 30.496094 C 76.332031 30.820312 76.78125 31.1875 77.195312 31.597656 C 77.609375 32.011719 77.976562 32.460938 78.304688 32.945312 C 78.628906 33.429688 78.902344 33.941406 79.125 34.480469 C 79.351562 35.015625 79.519531 35.570312 79.632812 36.144531 C 79.746094 36.714844 79.804688 37.292969 79.804688 37.875 Z M 79.804688 37.875"/></clipPath><linearGradient x1="112.352" gradientTransform="matrix(.407 .09582 -.09617 .4055 -6.728 52.857)" xmlns:xlink="http://www.w3.org/1999/xlink" y1="-24.173" x2="246.779" gradientUnits="userSpaceOnUse" y2="-24.173" xlink:type="simple" xlink:actuate="onLoad" id="c" xlink:show="other"><stop stop-color="#00B0E0" offset="0"/><stop stop-color="#00B0E0" offset=".125"/><stop stop-color="#00B0E0" offset=".156"/><stop stop-color="#00B0E0" offset=".172"/><stop stop-color="#00B0E0" offset=".18"/><stop stop-color="#00AFDF" offset=".188"/><stop stop-color="#00AEDF" offset=".195"/><stop stop-color="#00ADDE" offset=".203"/><stop stop-color="#00ACDD" offset=".211"/><stop stop-color="#00ABDD" offset=".219"/><stop stop-color="#00ABDC" offset=".227"/><stop stop-color="#00AADC" offset=".234"/><stop stop-color="#00A9DB" offset=".242"/><stop stop-color="#00A8DB" offset=".25"/><stop stop-color="#00A7DA" offset=".258"/><stop stop-color="#00A6DA" offset=".266"/><stop stop-color="#00A5D9" offset=".273"/><stop stop-color="#00A5D8" offset=".281"/><stop stop-color="#00A4D8" offset=".289"/><stop stop-color="#00A3D7" offset=".297"/><stop stop-color="#00A2D7" offset=".305"/><stop stop-color="#00A1D6" offset=".313"/><stop stop-color="#00A0D6" offset=".32"/><stop stop-color="#00A0D5" offset=".328"/><stop stop-color="#009FD5" offset=".336"/><stop stop-color="#009ED4" offset=".344"/><stop stop-color="#009DD3" offset=".352"/><stop stop-color="#009CD3" offset=".359"/><stop stop-color="#009BD2" offset=".367"/><stop stop-color="#009AD2" offset=".375"/><stop stop-color="#009AD1" offset=".383"/><stop stop-color="#0099D1" offset=".391"/><stop stop-color="#0098D0" offset=".398"/><stop stop-color="#0097CF" offset=".406"/><stop stop-color="#0096CF" offset=".414"/><stop stop-color="#0095CE" offset=".422"/><stop stop-color="#0094CE" offset=".43"/><stop stop-color="#0094CD" offset=".438"/><stop stop-color="#0093CD" offset=".445"/><stop stop-color="#0092CC" offset=".453"/><stop stop-color="#0091CC" offset=".461"/><stop stop-color="#0090CB" offset=".469"/><stop stop-color="#008FCA" offset=".477"/><stop stop-color="#008FCA" offset=".484"/><stop stop-color="#008EC9" offset=".492"/><stop stop-color="#008DC9" offset=".5"/><stop stop-color="#008CC8" offset=".508"/><stop stop-color="#008BC8" offset=".516"/><stop stop-color="#008AC7" offset=".523"/><stop stop-color="#0089C7" offset=".531"/><stop stop-color="#0089C6" offset=".539"/><stop stop-color="#0088C5" offset=".547"/><stop stop-color="#0087C5" offset=".555"/><stop stop-color="#0086C4" offset=".563"/><stop stop-color="#0085C4" offset=".57"/><stop stop-color="#0084C3" offset=".578"/><stop stop-color="#0084C3" offset=".586"/><stop stop-color="#0083C2" offset=".594"/><stop stop-color="#0082C2" offset=".602"/><stop stop-color="#0081C1" offset=".609"/><stop stop-color="#0080C0" offset=".617"/><stop stop-color="#007FC0" offset=".625"/><stop stop-color="#007EBF" offset=".75"/><stop stop-color="#007EBF" offset="1"/></linearGradient><linearGradient x1="292.24" gradientTransform="matrix(.407 .09582 -.09617 .4055 -6.728 52.857)" xmlns:xlink="http://www.w3.org/1999/xlink" y1="-142.902" x2="146.006" gradientUnits="userSpaceOnUse" y2="66.412" xlink:type="simple" xlink:actuate="onLoad" id="f" xlink:show="other"><stop stop-color="#00B0E0" offset="0"/><stop stop-color="#00B0E0" offset=".125"/><stop stop-color="#00B0E0" offset=".188"/><stop stop-color="#00B0E0" offset=".203"/><stop stop-color="#00B1E1" offset=".219"/><stop stop-color="#00B2E1" offset=".234"/><stop stop-color="#00B3E2" offset=".25"/><stop stop-color="#00B4E2" offset=".266"/><stop stop-color="#00B5E3" offset=".281"/><stop stop-color="#00B6E3" offset=".297"/><stop stop-color="#00B6E4" offset=".313"/><stop stop-color="#00B7E4" offset=".328"/><stop stop-color="#00B8E5" offset=".344"/><stop stop-color="#00B9E5" offset=".359"/><stop stop-color="#00BAE6" offset=".375"/><stop stop-color="#00BBE6" offset=".391"/><stop stop-color="#00BCE7" offset=".406"/><stop stop-color="#00BDE7" offset=".422"/><stop stop-color="#00BEE8" offset=".438"/><stop stop-color="#00BEE8" offset=".441"/><stop stop-color="#00BFE8" offset=".453"/><stop stop-color="#00BFE9" offset=".469"/><stop stop-color="#00C0E9" offset=".484"/><stop stop-color="#00C1EA" offset=".5"/><stop stop-color="#00C2EA" offset=".559"/><stop stop-color="#00C2EA" offset="1"/></linearGradient><linearGradient x1="-652.475" gradientTransform="matrix(-.407 -.09582 .09617 -.4055 -19.098 -388.417)" xmlns:xlink="http://www.w3.org/1999/xlink" y1="-1039.996" x2="-518.048" gradientUnits="userSpaceOnUse" y2="-1039.996" xlink:type="simple" xlink:actuate="onLoad" id="i" xlink:show="other"><stop stop-color="#00B3A5" offset="0"/><stop stop-color="#00B3A5" offset=".125"/><stop stop-color="#00B3A5" offset=".156"/><stop stop-color="#00B3A5" offset=".172"/><stop stop-color="#00B3A5" offset=".18"/><stop stop-color="#00B2A4" offset=".188"/><stop stop-color="#00B1A3" offset=".195"/><stop stop-color="#00B0A3" offset=".203"/><stop stop-color="#00B0A2" offset=".211"/><stop stop-color="#00AFA1" offset=".219"/><stop stop-color="#00AEA1" offset=".227"/><stop stop-color="#00ADA0" offset=".234"/><stop stop-color="#00AD9F" offset=".242"/><stop stop-color="#00AC9F" offset=".25"/><stop stop-color="#00AB9E" offset=".258"/><stop stop-color="#00AA9D" offset=".266"/><stop stop-color="#00A99C" offset=".273"/><stop stop-color="#00A99C" offset=".281"/><stop stop-color="#00A89B" offset=".289"/><stop stop-color="#00A79A" offset=".297"/><stop stop-color="#00A69A" offset=".305"/><stop stop-color="#00A699" offset=".313"/><stop stop-color="#00A598" offset=".32"/><stop stop-color="#00A498" offset=".328"/><stop stop-color="#00A397" offset=".336"/><stop stop-color="#00A296" offset=".344"/><stop stop-color="#00A295" offset=".352"/><stop stop-color="#00A195" offset=".359"/><stop stop-color="#00A094" offset=".367"/><stop stop-color="#009F93" offset=".375"/><stop stop-color="#009F93" offset=".383"/><stop stop-color="#009E92" offset=".391"/><stop stop-color="#009D91" offset=".398"/><stop stop-color="#009C91" offset=".406"/><stop stop-color="#009B90" offset=".414"/><stop stop-color="#009B8F" offset=".422"/><stop stop-color="#009A8E" offset=".43"/><stop stop-color="#00998E" offset=".438"/><stop stop-color="#00988D" offset=".445"/><stop stop-color="#00978C" offset=".453"/><stop stop-color="#00978C" offset=".461"/><stop stop-color="#00968B" offset=".469"/><stop stop-color="#00958A" offset=".477"/><stop stop-color="#00948A" offset=".484"/><stop stop-color="#009489" offset=".492"/><stop stop-color="#009388" offset=".5"/><stop stop-color="#009287" offset=".508"/><stop stop-color="#009187" offset=".516"/><stop stop-color="#009086" offset=".523"/><stop stop-color="#009085" offset=".531"/><stop stop-color="#008F85" offset=".539"/><stop stop-color="#008E84" offset=".547"/><stop stop-color="#008D83" offset=".555"/><stop stop-color="#008D83" offset=".563"/><stop stop-color="#008C82" offset=".57"/><stop stop-color="#008B81" offset=".578"/><stop stop-color="#008A80" offset=".586"/><stop stop-color="#008980" offset=".594"/><stop stop-color="#00897F" offset=".602"/><stop stop-color="#00887E" offset=".609"/><stop stop-color="#00877E" offset=".617"/><stop stop-color="#00867D" offset=".625"/><stop stop-color="#00867C" offset=".75"/><stop stop-color="#00857C" offset="1"/></linearGradient><linearGradient x1="324.369" gradientTransform="matrix(.407 .09582 -.09617 .4055 -6.728 52.857)" xmlns:xlink="http://www.w3.org/1999/xlink" y1="-82.334" x2="222.944" gradientUnits="userSpaceOnUse" y2="143.051" xlink:type="simple" xlink:actuate="onLoad" id="l" xlink:show="other"><stop stop-color="#00C3B9" offset="0"/><stop stop-color="#00C3B9" offset=".25"/><stop stop-color="#00C3B9" offset=".313"/><stop stop-color="#00C3B9" offset=".329"/><stop stop-color="#00C3B8" offset=".344"/><stop stop-color="#00C2B8" offset=".359"/><stop stop-color="#00C2B7" offset=".375"/><stop stop-color="#00C1B6" offset=".391"/><stop stop-color="#00C0B5" offset=".406"/><stop stop-color="#00BFB4" offset=".422"/><stop stop-color="#00BEB3" offset=".438"/><stop stop-color="#00BEB2" offset=".453"/><stop stop-color="#00BDB1" offset=".469"/><stop stop-color="#00BCB0" offset=".484"/><stop stop-color="#00BBAF" offset=".5"/><stop stop-color="#00BBAE" offset=".516"/><stop stop-color="#00BAAD" offset=".531"/><stop stop-color="#00B9AC" offset=".547"/><stop stop-color="#00B8AB" offset=".563"/><stop stop-color="#00B7AA" offset=".578"/><stop stop-color="#00B7AA" offset=".594"/><stop stop-color="#00B6A9" offset=".609"/><stop stop-color="#00B5A8" offset=".625"/><stop stop-color="#00B4A7" offset=".641"/><stop stop-color="#00B4A6" offset=".656"/><stop stop-color="#00B3A5" offset=".671"/><stop stop-color="#00B3A5" offset=".688"/><stop stop-color="#00B3A5" offset=".75"/><stop stop-color="#00B3A5" offset="1"/></linearGradient><linearGradient x1="65.051" gradientTransform="matrix(.4182 0 0 .41667 43.337 24.225)" xmlns:xlink="http://www.w3.org/1999/xlink" y1="10.673" x2="66.75" gradientUnits="userSpaceOnUse" y2="54.847" xlink:type="simple" xlink:actuate="onLoad" id="o" xlink:show="other"><stop stop-color="#00B6A8" offset="0"/><stop stop-color="#00B6A9" offset=".031"/><stop stop-color="#00B6A9" offset=".037"/><stop stop-color="#00B7A9" offset=".063"/><stop stop-color="#00B7AA" offset=".094"/><stop stop-color="#00B7AA" offset=".125"/><stop stop-color="#00B8AB" offset=".156"/><stop stop-color="#00B8AB" offset=".188"/><stop stop-color="#00B9AC" offset=".219"/><stop stop-color="#00B9AD" offset=".25"/><stop stop-color="#00BAAD" offset=".281"/><stop stop-color="#00BAAE" offset=".313"/><stop stop-color="#00BBAE" offset=".344"/><stop stop-color="#00BBAF" offset=".375"/><stop stop-color="#00BCB0" offset=".406"/><stop stop-color="#00BCB0" offset=".438"/><stop stop-color="#00BCB1" offset=".469"/><stop stop-color="#00BDB1" offset=".5"/><stop stop-color="#00BDB2" offset=".531"/><stop stop-color="#00BEB2" offset=".563"/><stop stop-color="#00BEB3" offset=".594"/><stop stop-color="#00BFB4" offset=".625"/><stop stop-color="#00BFB4" offset=".656"/><stop stop-color="#00C0B5" offset=".688"/><stop stop-color="#00C0B5" offset=".719"/><stop stop-color="#00C1B6" offset=".75"/><stop stop-color="#00C1B6" offset=".781"/><stop stop-color="#00C2B7" offset=".813"/><stop stop-color="#00C2B8" offset=".844"/><stop stop-color="#00C3B8" offset=".875"/><stop stop-color="#00C3B9" offset=".963"/><stop stop-color="#00C3B9" offset="1"/></linearGradient></defs><g clip-path="url(#a)"><g clip-path="url(#b)"><path fill="url(#c)" d="M 45.957031 34.285156 L 35.558594 78.132812 L 90.269531 91.011719 L 100.667969 47.164062 Z M 45.957031 34.285156"/></g></g><g clip-path="url(#d)"><g clip-path="url(#e)"><path fill="url(#f)" d="M 49.921875 8.464844 L 33.167969 79.113281 L 113.125 97.9375 L 129.878906 27.289062 Z M 49.921875 8.464844"/></g></g><path fill="#FFF" d="M 106.402344 65.945312 C 100.695312 75.039062 90.953125 80.972656 80.21875 81.882812 C 86.140625 73.007812 95.777344 67.136719 106.402344 65.945312 Z M 106.402344 65.945312" fill-opacity=".929"/><g clip-path="url(#g)"><g clip-path="url(#h)"><path fill="url(#i)" d="M 141.800781 115.382812 L 152.199219 71.535156 L 97.488281 58.65625 L 87.089844 102.503906 Z M 141.800781 115.382812"/></g></g><g clip-path="url(#j)"><g clip-path="url(#k)"><path fill="url(#l)" d="M 74.632812 48.476562 L 57.148438 122.203125 L 137.839844 141.199219 L 155.324219 67.472656 Z M 74.632812 48.476562"/></g></g><g clip-path="url(#m)"><g clip-path="url(#n)"><path fill="url(#o)" d="M 61.988281 29 L 61.988281 46.75 L 79.804688 46.75 L 79.804688 29 Z M 61.988281 29"/></g></g><g fill="#03989E"><g><g><path d="M 6.621094 0 L 10.3125 0 L 16.789062 -16.671875 L 12.929688 -16.671875 L 8.453125 -4.214844 L 4 -16.671875 L 0.144531 -16.671875 Z M 6.621094 0" transform="translate(45.825 155.956)"/></g></g></g><g fill="#03989E"><g><g><path d="M 3.097656 -13.335938 C 4.144531 -13.335938 5.023438 -13.90625 5.023438 -15.21875 C 5.023438 -16.503906 4.144531 -17.074219 3.097656 -17.074219 C 2.070312 -17.074219 1.144531 -16.503906 1.144531 -15.21875 C 1.144531 -13.90625 2.070312 -13.335938 3.097656 -13.335938 Z M 1.429688 0 L 4.738281 0 L 4.738281 -11.429688 L 1.429688 -11.429688 Z M 1.429688 0" transform="translate(62.758 155.956)"/></g></g></g><g fill="#03989E"><g><g><path d="M 6.382812 0.332031 C 7.527344 0.332031 8.574219 0.144531 9.453125 -0.167969 L 9.453125 -2.835938 C 8.789062 -2.597656 8.144531 -2.476562 7.382812 -2.476562 C 6.144531 -2.476562 5.574219 -2.976562 5.574219 -4.167969 L 5.574219 -8.644531 L 9.167969 -8.644531 L 9.167969 -11.429688 L 5.574219 -11.429688 L 5.574219 -15.550781 L 2.261719 -14.765625 L 2.261719 -11.429688 L 0.332031 -11.429688 L 0.332031 -8.644531 L 2.261719 -8.644531 L 2.261719 -3.523438 C 2.261719 -0.691406 4.167969 0.332031 6.382812 0.332031 Z M 6.382812 0.332031" transform="translate(68.95 155.956)"/></g></g></g><g fill="#03989E"><g><g><path d="M 4.621094 0.332031 C 6.335938 0.332031 7.667969 -0.214844 8.765625 -1.09375 L 8.8125 -1.023438 C 9.289062 -0.191406 10.167969 0.214844 11.265625 0.214844 C 11.929688 0.214844 12.597656 0.0703125 13.097656 -0.117188 L 13.097656 -2.285156 C 12.90625 -2.238281 12.695312 -2.191406 12.503906 -2.191406 C 12.074219 -2.191406 11.691406 -2.359375 11.691406 -2.953125 L 11.691406 -6.597656 C 11.691406 -10.359375 9.503906 -11.765625 6.050781 -11.765625 C 4.308594 -11.765625 2.570312 -11.3125 1.644531 -11.003906 L 1.644531 -8.121094 C 2.714844 -8.574219 4.097656 -9.003906 5.691406 -9.003906 C 7.476562 -9.003906 8.382812 -8.191406 8.382812 -7.074219 L 8.382812 -6.667969 C 7.550781 -6.859375 6.574219 -6.976562 5.667969 -6.976562 C 3.359375 -6.976562 0.644531 -6.074219 0.644531 -3.167969 C 0.644531 -0.90625 2.5 0.332031 4.621094 0.332031 Z M 5.8125 -2.023438 C 4.8125 -2.023438 4.046875 -2.570312 4.046875 -3.429688 C 4.046875 -4.597656 5.238281 -4.976562 6.429688 -4.976562 C 7.097656 -4.976562 7.859375 -4.859375 8.382812 -4.738281 L 8.382812 -3 C 7.621094 -2.332031 6.738281 -2.023438 5.8125 -2.023438 Z M 5.8125 -2.023438" transform="translate(78.904 155.956)"/></g></g></g><g fill="#03989E"><g><g><path d="M 1.785156 0 L 5.359375 0 L 5.359375 -10.265625 L 9.765625 -3.570312 L 11.835938 -3.570312 L 16.242188 -10.242188 L 16.242188 0 L 19.8125 0 L 19.8125 -16.671875 L 16.503906 -16.671875 L 10.8125 -8 L 5.097656 -16.671875 L 1.785156 -16.671875 Z M 1.785156 0" transform="translate(92.217 155.956)"/></g></g></g><g fill="#03989E"><g><g><path d="M 7.382812 0.332031 C 9.097656 0.332031 10.503906 0.0703125 11.574219 -0.382812 L 11.574219 -2.976562 C 10.597656 -2.570312 9.429688 -2.308594 8.121094 -2.308594 C 6.238281 -2.308594 4.476562 -2.976562 4.097656 -4.644531 L 12.144531 -4.644531 C 12.90625 -8.027344 11.382812 -11.765625 6.644531 -11.765625 C 4.074219 -11.765625 0.761719 -10.027344 0.761719 -5.714844 C 0.761719 -1.738281 3.761719 0.332031 7.382812 0.332031 Z M 4.074219 -6.789062 C 4.121094 -8.359375 5.359375 -9.242188 6.761719 -9.242188 C 8.8125 -9.242188 9.265625 -7.574219 9.121094 -6.789062 Z M 4.074219 -6.789062" transform="translate(113.817 155.956)"/></g></g></g><g fill="#03989E"><g><g><path d="M 6.359375 0.332031 C 8.453125 0.332031 9.765625 -0.644531 10.480469 -1.667969 L 10.480469 0 L 13.40625 0 L 13.40625 -16.671875 L 10.097656 -16.671875 L 10.097656 -10.242188 C 9.359375 -11.027344 8.144531 -11.765625 6.359375 -11.765625 C 2.714844 -11.765625 0.761719 -8.835938 0.761719 -5.714844 C 0.761719 -2.597656 2.714844 0.332031 6.359375 0.332031 Z M 7.144531 -2.453125 C 5.261719 -2.453125 4.144531 -3.929688 4.144531 -5.714844 C 4.144531 -7.5 5.261719 -8.976562 7.144531 -8.976562 C 8.574219 -8.976562 9.644531 -8.050781 10.097656 -7.074219 L 10.097656 -4.359375 C 9.644531 -3.382812 8.574219 -2.453125 7.144531 -2.453125 Z M 7.144531 -2.453125" transform="translate(126.868 155.956)"/></g></g></g></svg>